<svg width="47" height="46" viewBox="0 0 47 46" fill="none" xmlns="http://www.w3.org/2000/svg">
<path d="M43.3516 2.83008H17.4766C16.7148 2.83232 15.9848 3.13593 15.4461 3.67462C14.9074 4.2133 14.6038 4.94327 14.6016 5.70508V25.8301C14.6038 26.5919 14.9074 27.3219 15.4461 27.8605C15.9848 28.3992 16.7148 28.7028 17.4766 28.7051H43.3516C44.1134 28.7028 44.8433 28.3992 45.382 27.8605C45.9207 27.3219 46.2243 26.5919 46.2266 25.8301V5.70508C46.2243 4.94327 45.9207 4.2133 45.382 3.67462C44.8433 3.13593 44.1134 2.83232 43.3516 2.83008ZM43.3516 25.8301H17.4766V5.70508H43.3516V25.8301Z" fill="white"/>
<path d="M28.7969 34.7734H8.67188V20.3984H11.5469V17.5234H8.67188C7.91007 17.5257 7.1801 17.8293 6.64141 18.368C6.10273 18.9067 5.79911 19.6366 5.79688 20.3984V34.7734C5.79911 35.5352 6.10273 36.2652 6.64141 36.8039C7.1801 37.3426 7.91007 37.6462 8.67188 37.6484H28.7969C29.5587 37.6462 30.2887 37.3426 30.8273 36.8039C31.366 36.2652 31.6696 35.5352 31.6719 34.7734V31.8984H28.7969V34.7734Z" fill="white"/>
</svg>
